<?xml version="1.0" standalone="no"?>
<!DOCTYPE svg PUBLIC "-//W3C//DTD SVG 20010904//EN"
 "http://www.w3.org/TR/2001/REC-SVG-20010904/DTD/svg10.dtd">
<svg version="1.0" xmlns="http://www.w3.org/2000/svg"
 width="2000.000000pt" height="2000.000000pt" viewBox="0 0 2000.000000 2000.000000"
 preserveAspectRatio="xMidYMid meet">

<g transform="translate(0.000000,2000.000000) scale(0.100000,-0.100000)"
fill="#000000" stroke="none">
<path d="M11877 15342 c-57 -2 -68 -6 -63 -18 3 -9 6 -29 6 -45 l0 -29 1496 0
1496 0 -7 43 c-4 23 -8 43 -9 44 -3 4 -2842 8 -2919 5z m57 -38 c7 -19 -1 -34
-19 -34 -18 0 -28 17 -21 35 7 20 32 19 40 -1z m84 -12 c2 -14 -2 -22 -12 -22
-19 0 -29 17 -22 36 8 22 30 12 34 -14z m87 3 c0 -11 -8 -21 -17 -23 -14 -3
-18 3 -18 23 0 20 4 26 18 23 9 -2 17 -12 17 -23z"/>
<path d="M11670 13093 l0 -153 -490 0 -490 0 0 -4478 0 -4478 -21 -94 c-57
-265 -123 -497 -184 -656 l-28 -71 -945 -6 c-520 -4 -1190 -7 -1489 -7 -476 0
-543 -2 -543 -15 0 -13 171 -15 1476 -15 1402 0 1476 -1 1470 -17 -40 -108
-213 -313 -307 -365 -123 -67 -47 -62 -1085 -68 -999 -5 -974 -4 -974 -51 0
-38 47 -53 350 -109 966 -181 1453 -315 1534 -423 21 -29 21 -29 1 -43 -65
-48 -337 -82 -820 -104 -462 -21 -2708 -4 -2880 21 -140 20 -281 115 -380 253
-149 211 -254 510 -391 1119 -25 111 -72 317 -104 457 -32 140 -88 408 -125
595 -75 385 -123 595 -166 740 -35 115 -91 252 -127 309 l-24 40 33 27 c36 30
29 40 -8 14 -43 -30 -122 -65 -147 -65 -18 0 -30 8 -40 28 -15 30 -44 164 -48
230 l-3 42 84 29 c153 54 200 121 117 167 -76 43 -305 57 -379 23 -50 -23 -30
-76 63 -163 l62 -57 -27 -79 c-66 -189 -100 -214 -182 -136 -47 44 -47 45 -28
60 39 30 -1 15 -50 -18 -74 -50 -177 -156 -231 -239 -132 -200 -250 -501 -313
-802 -12 -55 -23 -110 -26 -122 -5 -21 -11 -23 -64 -23 l-59 0 -6 -45 -7 -45
-44 0 -43 0 -7 -107 c-3 -60 -7 -124 -8 -143 l-2 -35 175 -12 c96 -6 205 -13
242 -16 l67 -4 5 61 c12 142 16 236 9 235 -5 -1 -25 -1 -45 0 -37 1 -37 1 -40
48 l-3 48 -48 3 c-43 3 -47 5 -42 25 3 12 16 73 30 136 89 405 230 710 410
887 88 87 105 94 146 60 54 -46 114 -27 154 48 27 51 52 45 76 -18 29 -77 54
-98 113 -94 l50 3 41 -80 c82 -162 131 -348 255 -960 138 -681 302 -1391 380
-1643 134 -433 301 -696 510 -802 117 -59 135 -62 445 -71 567 -16 2334 -22
2620 -10 691 30 925 80 925 197 0 28 -10 45 -47 85 -124 132 -510 247 -1423
423 l-125 24 746 1 c708 1 750 2 823 21 192 49 331 174 461 413 l50 92 2785 6
c3664 8 4953 12 4853 16 l-83 4 0 4899 0 4900 -485 0 -485 0 0 153 0 152
-2720 0 -2720 0 0 -152z m4918 -829 c28 -32 28 -66 -2 -100 -48 -57 -136 -26
-136 48 0 82 82 114 138 52z m241 21 c31 -16 41 -33 41 -71 0 -37 -15 -60 -50
-74 -86 -36 -151 74 -79 134 35 30 49 32 88 11z m260 0 c77 -39 42 -155 -45
-155 -26 0 -74 56 -74 85 0 30 49 85 75 85 9 0 29 -7 44 -15z m289 -21 c30
-34 28 -70 -7 -105 -33 -33 -50 -35 -92 -14 -82 43 -39 167 51 149 14 -3 35
-16 48 -30z m260 4 c42 -40 25 -109 -32 -128 -98 -32 -151 96 -61 148 25 15
64 7 93 -20z m-1081 -218 c54 -19 68 -81 29 -126 -47 -56 -136 -25 -136 48 0
38 16 67 43 78 29 12 29 12 64 0z m272 -5 c32 -16 41 -33 41 -76 0 -26 -28
-68 -47 -70 -5 0 -17 -2 -27 -4 -40 -8 -86 33 -86 75 0 43 10 61 44 76 39 17
41 17 75 -1z m260 0 c82 -42 38 -165 -52 -148 -32 6 -67 47 -67 77 0 28 26 65
54 76 29 12 33 12 65 -5z m282 -14 c32 -33 37 -65 13 -99 -24 -35 -59 -44
-100 -27 -84 35 -55 151 39 154 10 1 32 -12 48 -28z m260 0 c36 -36 39 -81 7
-111 -32 -29 -61 -34 -96 -16 -59 31 -58 109 3 144 32 18 55 14 86 -17z
m-1068 -222 c49 -22 60 -83 23 -125 -30 -36 -91 -38 -118 -4 -26 32 -23 86 7
115 26 27 51 31 88 14z m266 -4 c67 -34 50 -132 -25 -151 -43 -11 -94 32 -94
80 0 35 14 57 45 74 27 15 41 15 74 -3z m282 -11 c56 -51 -3 -157 -76 -138
-32 8 -65 49 -65 81 0 14 13 38 30 55 26 25 36 29 62 24 18 -3 40 -13 49 -22z
m242 15 c47 -21 60 -80 27 -122 -26 -33 -63 -41 -99 -23 -59 31 -59 114 -1
143 31 16 43 16 73 2z m260 -1 c32 -16 46 -39 47 -71 0 -42 -16 -64 -54 -77
-56 -18 -106 15 -106 71 0 65 60 106 113 77z m-1032 -687 c35 -36 37 -70 5
-107 -48 -57 -136 -26 -136 48 0 81 75 115 131 59z m248 14 c63 -32 51 -128
-18 -150 -11 -3 -35 1 -55 9 -28 11 -36 22 -41 49 -9 47 1 74 33 92 34 18 47
18 81 0z m256 5 c35 -13 56 -64 43 -102 -10 -29 -52 -58 -83 -58 -26 0 -75 55
-75 85 0 29 48 85 74 85 8 0 26 -4 41 -10z m286 -19 c35 -36 37 -70 5 -107
-29 -34 -87 -37 -118 -6 -23 23 -27 84 -7 108 34 41 82 42 120 5z m238 18 c17
-6 36 -19 41 -29 35 -66 -29 -145 -97 -119 -68 26 -73 112 -8 147 25 14 26 14
64 1z m-1028 -258 c35 -36 37 -70 5 -107 -30 -36 -91 -38 -118 -4 -28 35 -24
94 8 119 37 29 70 26 105 -8z m248 14 c61 -31 55 -119 -10 -143 -71 -26 -135
51 -98 119 19 37 65 47 108 24z m256 5 c59 -23 62 -116 4 -146 -36 -18 -73
-10 -99 23 -28 36 -25 70 9 104 32 31 45 34 86 19z m286 -19 c32 -33 37 -65
13 -99 -24 -35 -59 -44 -98 -28 -64 27 -67 112 -6 143 38 19 59 16 91 -16z
m263 4 c30 -28 34 -69 10 -103 -45 -65 -143 -36 -144 41 -1 77 78 114 134 62z
m-1053 -244 c32 -33 37 -65 13 -99 -51 -73 -163 -23 -146 64 6 31 47 64 79 64
14 0 37 -13 54 -29z m248 14 c32 -16 41 -33 41 -73 -1 -91 -139 -104 -156 -15
-14 77 46 124 115 88z m273 -5 c31 -24 39 -59 22 -99 -21 -51 -92 -59 -131
-15 -31 34 -29 70 6 105 34 34 68 37 103 9z m269 -9 c32 -33 37 -65 13 -99
-24 -35 -59 -44 -98 -28 -65 27 -68 111 -6 143 38 19 59 16 91 -16z m272 -2
c24 -29 21 -73 -6 -105 -63 -73 -172 12 -126 97 23 43 99 47 132 8z m-1080
-650 c49 -22 60 -83 23 -125 -18 -22 -32 -28 -59 -27 -46 1 -56 8 -73 49 -13
30 -12 38 1 64 25 48 61 61 108 39z m266 -4 c48 -24 55 -77 18 -121 -63 -73
-172 12 -126 97 19 37 65 47 108 24z m273 -5 c14 -11 28 -31 30 -44 17 -87
-95 -137 -146 -64 -24 34 -19 66 13 99 34 34 68 37 103 9z m252 9 c44 -21 56
-86 23 -128 -21 -25 -56 -32 -91 -17 -64 27 -67 112 -6 143 31 16 42 16 74 2z
m266 -4 c33 -17 44 -44 36 -89 -11 -59 -94 -79 -136 -34 -36 39 -24 100 25
126 27 15 41 15 75 -3z m-1036 -256 c31 -37 33 -67 5 -103 -22 -28 -73 -36
-109 -16 -28 15 -40 61 -25 97 26 61 88 71 129 22z m260 6 c15 -13 26 -35 26
-49 0 -83 -84 -119 -137 -60 -70 77 35 180 111 109z m247 14 c48 -25 54 -115
9 -139 -36 -20 -87 -12 -109 16 -29 37 -26 70 8 105 31 31 59 36 92 18z m262
0 c26 -12 47 -47 47 -78 0 -35 -39 -71 -76 -71 -47 0 -70 14 -83 50 -12 37 -1
72 31 94 26 19 48 20 81 5z m290 -20 c23 -28 22 -70 -4 -103 -27 -34 -88 -37
-119 -4 -35 38 -22 109 23 128 32 14 79 3 100 -21z m-1072 -222 c42 -32 49
-81 18 -121 -22 -28 -73 -36 -109 -16 -44 23 -40 112 7 139 24 14 64 13 84 -2z
m274 -12 c31 -30 32 -73 4 -109 -45 -57 -139 -19 -139 56 0 39 40 78 80 78 19
0 40 -9 55 -25z m259 3 c24 -22 30 -40 27 -80 -4 -58 -102 -80 -140 -32 -61
78 40 177 113 112z m249 11 c26 -12 47 -47 47 -78 0 -35 -39 -71 -76 -71 -47
0 -70 14 -83 50 -12 37 -1 72 31 94 26 19 48 20 81 5z m282 -14 c52 -51 17
-135 -55 -135 -49 0 -80 30 -80 77 0 44 38 83 80 83 19 0 40 -9 55 -25z
m-1054 -674 c36 -36 37 -73 4 -106 -31 -32 -86 -34 -115 -5 -31 31 -27 93 6
119 37 29 70 26 105 -8z m272 -2 c42 -51 5 -129 -62 -129 -76 0 -109 85 -54
136 23 21 35 25 63 20 19 -3 43 -15 53 -27z m252 6 c32 -31 34 -86 5 -115 -29
-29 -84 -27 -115 5 -35 35 -33 76 6 109 38 33 73 33 104 1z m266 -4 c34 -35
37 -68 8 -105 -15 -19 -30 -26 -55 -26 -47 0 -70 14 -83 50 -12 37 -1 72 31
94 34 24 66 19 99 -13z m272 -2 c23 -28 22 -70 -4 -103 -27 -34 -88 -37 -119
-4 -35 38 -22 109 23 128 32 14 79 3 100 -21z m-1059 -235 c34 -34 34 -77 1
-109 -52 -53 -135 -18 -135 56 0 72 82 104 134 53z m261 1 c31 -30 32 -73 4
-109 -45 -57 -139 -19 -139 56 0 39 40 78 80 78 19 0 40 -9 55 -25z m259 4
c33 -26 37 -88 6 -119 -29 -29 -84 -27 -115 5 -72 71 29 177 109 114z m267 -8
c34 -35 37 -68 8 -105 -15 -19 -30 -26 -55 -26 -47 0 -70 14 -83 50 -12 37 -1
72 31 94 34 24 66 19 99 -13z m264 4 c73 -73 -37 -184 -112 -113 -50 47 -12
138 57 138 19 0 40 -9 55 -25z m-1056 -232 c12 -10 24 -35 27 -55 5 -30 2 -41
-19 -62 -54 -53 -141 -18 -139 56 2 64 82 101 131 61z m266 -8 c31 -30 32 -73
4 -109 -45 -57 -139 -19 -139 56 0 39 40 78 80 78 19 0 40 -9 55 -25z m259 3
c25 -23 29 -35 27 -75 -3 -61 -101 -86 -140 -37 -62 79 39 178 113 112z m249
11 c49 -22 61 -86 22 -124 -44 -45 -112 -29 -136 31 -10 28 -3 51 24 82 22 24
53 28 90 11z m282 -14 c73 -72 -28 -178 -109 -114 -55 43 -18 139 54 139 19 0
40 -9 55 -25z m-1064 -658 c43 -33 50 -87 14 -122 -43 -44 -112 -29 -134 28
-26 68 63 138 120 94z m274 -12 c31 -30 32 -73 4 -109 -45 -57 -139 -19 -139
56 0 39 40 78 80 78 19 0 40 -9 55 -25z m259 3 c36 -33 39 -85 6 -118 -30 -30
-85 -27 -115 6 -69 75 34 179 109 112z m249 11 c47 -21 60 -80 26 -123 -22
-28 -73 -36 -109 -16 -22 12 -42 64 -33 88 19 53 66 74 116 51z m290 -20 c26
-33 22 -83 -9 -108 -84 -66 -183 41 -108 116 21 21 32 24 62 19 20 -3 45 -15
55 -27z m-1078 -215 c46 -18 54 -109 12 -139 -26 -18 -76 -19 -99 -1 -76 57
-4 174 87 140z m280 -19 c31 -30 32 -73 4 -109 -45 -57 -139 -19 -139 56 0 39
40 78 80 78 19 0 40 -9 55 -25z m259 3 c56 -51 24 -138 -50 -138 -39 0 -84 39
-84 72 0 25 26 75 42 81 30 12 69 6 92 -15z m257 9 c42 -32 49 -81 18 -121
-22 -28 -73 -36 -109 -16 -22 12 -42 64 -33 88 19 54 84 80 124 49z m282 -18
c42 -51 5 -129 -62 -129 -75 0 -109 83 -55 137 21 21 32 24 62 19 20 -3 45
-15 55 -27z m-1078 -215 c25 -10 47 -62 40 -95 -16 -74 -129 -79 -154 -7 -23
67 45 128 114 102z m280 -19 c50 -49 15 -135 -55 -135 -41 0 -80 39 -80 80 0
41 39 80 80 80 19 0 40 -9 55 -25z m261 2 c35 -31 37 -77 4 -112 -53 -56 -148
-11 -136 65 11 67 80 92 132 47z m255 10 c44 -34 47 -103 6 -132 -46 -33 -110
-9 -130 48 -8 22 8 66 31 83 21 17 72 17 93 1z m274 -12 c52 -51 17 -135 -57
-135 -39 0 -78 40 -78 80 0 41 39 80 80 80 19 0 40 -9 55 -25z m-1070 -651
c25 -10 47 -62 40 -95 -18 -80 -152 -77 -156 4 -2 40 2 52 27 75 25 22 57 28
89 16z m280 -19 c31 -30 32 -73 4 -109 -43 -55 -139 -18 -139 54 0 41 39 80
80 80 19 0 40 -9 55 -25z m253 9 c66 -46 36 -143 -43 -144 -65 0 -101 60 -71
119 22 42 74 53 114 25z m257 10 c25 -10 47 -62 40 -95 -8 -36 -40 -59 -81
-59 -53 0 -79 36 -75 102 3 41 67 70 116 52z m280 -19 c73 -73 -37 -184 -112
-113 -33 31 -32 90 3 117 36 28 79 27 109 -4z m-1054 -234 c18 -14 24 -29 24
-61 0 -32 -6 -47 -24 -61 -53 -43 -131 -7 -133 60 -2 68 79 106 133 62z m268
-7 c28 -36 27 -79 -4 -109 -49 -50 -135 -15 -135 55 0 72 96 109 139 54z m256
9 c56 -55 26 -142 -50 -143 -65 0 -101 60 -71 118 9 17 21 32 28 35 28 11 77
6 93 -10z m254 7 c31 -16 46 -65 31 -100 -40 -97 -184 -40 -148 59 17 46 72
65 117 41z m276 -15 c50 -49 15 -135 -55 -135 -72 0 -109 96 -54 139 36 28 79
27 109 -4z m-1070 -221 c8 -4 23 -20 31 -36 43 -82 -51 -156 -121 -95 -69 59
2 164 90 131z m280 -19 c50 -49 15 -135 -55 -135 -41 0 -80 39 -80 80 0 41 39
80 80 80 19 0 40 -9 55 -25z m264 4 c25 -27 29 -47 19 -85 -19 -74 -136 -70
-153 5 -7 31 15 85 37 94 32 13 78 6 97 -14z m258 6 c29 -21 38 -66 19 -103
-17 -33 -34 -42 -74 -42 -103 2 -99 159 3 160 17 0 40 -7 52 -15z m267 -6 c55
-43 18 -139 -54 -139 -72 0 -109 96 -54 139 15 12 39 21 54 21 15 0 39 -9 54
-21z m-1053 -668 c18 -14 24 -29 24 -61 0 -32 -6 -47 -24 -61 -43 -35 -113
-17 -130 33 -27 76 67 141 130 89z m263 -2 c20 -16 26 -29 26 -59 0 -72 -84
-106 -135 -55 -73 72 28 178 109 114z m250 10 c32 -15 48 -59 35 -98 -17 -49
-87 -67 -130 -32 -18 14 -24 29 -24 61 0 67 54 98 119 69z m277 -8 c18 -14 24
-29 24 -61 0 -50 -30 -80 -79 -80 -38 1 -62 18 -75 53 -12 31 0 73 27 93 25
19 76 17 103 -5z m264 -6 c50 -49 15 -135 -55 -135 -41 0 -80 39 -80 80 0 41
39 80 80 80 19 0 40 -9 55 -25z m-1054 -234 c18 -14 24 -29 24 -61 0 -49 -29
-80 -74 -80 -79 0 -115 99 -53 146 25 19 76 17 103 -5z m263 -2 c20 -16 26
-29 26 -59 0 -72 -84 -106 -135 -55 -52 51 -17 135 55 135 15 0 39 -9 54 -21z
m258 7 c26 -19 39 -62 28 -90 -18 -48 -84 -72 -121 -43 -44 34 -47 103 -6 132
26 18 76 19 99 1z m265 -1 c29 -21 38 -66 19 -103 -26 -50 -87 -58 -126 -17
-67 71 27 176 107 120z m268 -10 c73 -72 -28 -178 -109 -114 -20 16 -26 29
-26 59 0 72 84 106 135 55z m-1058 -230 c58 -41 24 -144 -48 -145 -43 0 -79
35 -79 78 0 68 71 106 127 67z m270 -7 c32 -30 31 -81 -2 -113 -72 -73 -178
28 -114 109 27 34 82 36 116 4z m255 8 c76 -57 4 -174 -87 -140 -46 18 -54
109 -12 139 26 18 76 19 99 1z m265 -1 c53 -37 32 -129 -32 -141 -85 -16 -136
92 -68 144 23 17 74 15 100 -3z m267 -6 c35 -28 36 -80 1 -114 -30 -31 -73
-32 -109 -4 -56 44 -20 139 54 139 15 0 39 -9 54 -21z m-1057 -664 c29 -21 38
-66 19 -103 -25 -49 -78 -57 -122 -19 -75 65 22 179 103 122z m272 -11 c28
-36 27 -79 -4 -109 -72 -73 -178 28 -114 109 16 20 29 26 59 26 30 0 43 -6 59
-26z m253 12 c69 -52 19 -158 -67 -142 -63 12 -82 89 -35 136 23 23 76 26 102
6z m265 -1 c29 -21 38 -66 19 -103 -25 -48 -78 -57 -120 -19 -76 68 17 181
101 122z m268 -10 c73 -72 -28 -178 -109 -114 -19 15 -26 29 -26 57 0 75 83
110 135 57z m-1048 -241 c21 -21 24 -32 19 -62 -10 -67 -76 -93 -130 -51 -19
15 -26 29 -26 57 0 76 83 110 137 56z m262 0 c28 -36 27 -79 -4 -109 -72 -73
-178 28 -114 109 16 20 29 26 59 26 30 0 43 -6 59 -26z m251 16 c25 -13 41
-65 30 -95 -24 -63 -116 -72 -146 -14 -39 76 40 150 116 109z m259 0 c10 -5
24 -23 31 -40 31 -75 -51 -141 -118 -94 -45 32 -48 99 -5 132 20 14 67 16 92
2z m280 -16 c28 -36 27 -79 -4 -109 -73 -73 -184 37 -113 112 31 33 90 32 117
-3z m-1054 -239 c50 -49 13 -134 -58 -135 -64 0 -103 94 -57 140 29 29 84 27
115 -5z m264 -1 c28 -36 27 -79 -4 -109 -73 -73 -184 37 -113 112 31 33 90 32
117 -3z m251 16 c25 -13 41 -65 30 -94 -11 -30 -47 -56 -78 -56 -13 0 -37 14
-54 30 -25 26 -29 36 -24 63 11 56 74 85 126 57z m275 -15 c33 -33 32 -70 -4
-106 -33 -32 -65 -37 -99 -13 -45 32 -48 99 -5 132 28 21 81 15 108 -13z m264
-1 c29 -37 27 -79 -5 -111 -48 -48 -134 -10 -134 60 0 72 95 106 139 51z
m-6949 -364 l0 -220 -70 0 c-38 0 -70 3 -70 6 0 3 22 70 48 148 27 77 57 174
67 214 11 39 20 72 22 72 2 0 3 -99 3 -220z"/>
<path d="M2520 11220 l0 -290 45 0 45 0 0 290 0 290 -45 0 -45 0 0 -290z"/>
<path d="M2740 11220 l0 -290 45 0 45 0 2 201 3 201 160 -200 c156 -196 161
-201 198 -201 l37 -1 0 290 0 290 -45 0 -45 0 -2 -205 -3 -205 -135 172 c-190
243 -186 238 -226 238 l-34 0 0 -290z"/>
<path d="M3310 11470 l0 -40 95 0 95 0 0 -250 0 -250 45 0 45 0 2 248 3 247
93 3 92 3 0 39 0 40 -235 0 -235 0 0 -40z"/>
<path d="M3860 11220 l0 -290 200 0 200 0 0 40 0 39 -152 3 -153 3 0 85 0 85
128 3 127 3 0 34 0 34 -127 3 -128 3 0 80 0 80 148 3 147 3 0 39 0 40 -195 0
-195 0 0 -290z"/>
<path d="M4350 11220 l0 -290 45 0 45 0 0 100 0 100 68 0 68 0 59 -96 c33 -53
65 -98 71 -101 7 -2 30 -3 53 -1 l42 3 -65 105 -64 105 40 34 c47 40 68 84 68
138 -1 73 -58 158 -123 182 -16 6 -91 11 -168 11 l-139 0 0 -290z m280 197
c14 -7 33 -29 44 -51 16 -32 17 -44 7 -76 -19 -64 -49 -80 -152 -80 l-89 0 0
103 c0 57 3 107 7 110 11 12 157 7 183 -6z"/>
<path d="M4890 11220 l0 -290 45 0 45 0 2 199 3 198 159 -198 c157 -196 160
-199 198 -199 l38 0 0 290 0 290 -45 0 -45 0 0 -200 c0 -110 -3 -200 -8 -200
-4 0 -48 51 -97 113 -247 311 -225 287 -262 287 l-33 0 0 -290z"/>
<path d="M5677 11503 c-3 -5 -53 -129 -112 -278 -59 -148 -109 -276 -112 -282
-4 -10 9 -13 45 -13 l51 0 28 80 28 80 111 0 111 0 30 -77 30 -78 47 -3 c25
-2 46 0 46 4 0 4 -50 135 -112 291 l-111 283 -38 0 c-21 0 -40 -3 -42 -7z m89
-231 l42 -107 -85 -3 c-47 -2 -88 -1 -90 2 -3 3 14 55 38 115 23 61 45 108 48
105 3 -3 25 -54 47 -112z"/>
<path d="M6060 11221 l0 -291 200 0 200 0 0 40 0 40 -155 0 -155 0 -2 248 -3
247 -42 3 -43 3 0 -290z"/>
<path d="M6809 11500 c-77 -23 -119 -81 -119 -163 0 -90 49 -129 206 -166 81
-19 114 -44 114 -85 0 -62 -41 -83 -143 -72 -39 4 -79 16 -112 35 l-51 29 -17
-30 c-25 -43 -22 -52 26 -76 66 -33 131 -45 215 -40 131 8 177 50 177 162 0
67 -1 69 -40 102 -23 21 -62 41 -95 50 -138 38 -165 49 -179 75 -20 35 -7 75
29 94 53 28 164 12 210 -30 18 -16 20 -15 39 23 l20 40 -22 15 c-62 41 -188
59 -258 37z"/>
<path d="M7207 11503 c-4 -3 -7 -134 -7 -290 l0 -283 200 0 200 0 0 40 0 39
-152 3 -153 3 0 85 0 85 128 3 127 3 0 34 0 34 -127 3 -128 3 0 80 0 80 148 3
147 3 0 39 0 40 -188 0 c-104 0 -192 -3 -195 -7z"/>
<path d="M7690 11221 l0 -291 45 0 45 0 0 100 0 100 68 0 69 0 62 -100 62
-100 50 0 c27 0 49 2 49 5 0 4 -72 122 -117 191 -13 20 -11 23 22 43 102 60
97 235 -7 307 -40 28 -45 29 -195 32 l-153 4 0 -291z m274 199 c30 -11 66 -65
66 -98 0 -37 -28 -88 -56 -101 -14 -6 -63 -11 -109 -11 l-85 0 0 103 c0 57 3
107 7 110 10 11 149 8 177 -3z"/>
<path d="M8160 11503 c-1 -4 50 -135 112 -290 l113 -283 40 0 40 0 113 283
c61 155 112 286 112 290 0 4 -21 7 -47 5 l-47 -3 -83 -220 c-46 -121 -84 -224
-86 -229 -2 -5 -42 94 -89 220 l-85 229 -46 3 c-26 2 -47 -1 -47 -5z"/>
<path d="M8767 11503 c-4 -3 -7 -134 -7 -290 l0 -283 200 0 200 0 0 40 0 40
-155 0 -155 0 0 90 0 90 130 0 130 0 0 35 0 34 -127 3 -128 3 0 80 0 80 148 3
147 3 0 39 0 40 -188 0 c-104 0 -192 -3 -195 -7z"/>
<path d="M9257 11503 c-4 -3 -7 -134 -7 -290 l0 -283 45 0 45 0 0 100 0 100
69 0 69 0 62 -100 62 -100 49 0 c27 0 49 2 49 5 0 3 -29 52 -64 109 l-65 104
39 26 c106 70 86 263 -33 317 -35 15 -66 19 -178 19 -75 0 -139 -3 -142 -7z
m283 -93 c60 -42 64 -128 9 -174 -28 -24 -39 -26 -120 -26 l-89 0 0 103 c0 57
3 107 7 110 3 4 42 7 86 7 63 0 85 -4 107 -20z"/>
<path d="M6629 10617 c-91 -26 -176 -111 -200 -201 -6 -23 -9 -71 -7 -107 17
-235 289 -350 464 -196 125 110 137 295 28 417 -74 81 -185 115 -285 87z m141
-129 c56 -29 80 -74 80 -148 -1 -79 -28 -133 -81 -160 -97 -50 -196 9 -214
125 -12 82 23 157 87 188 45 22 76 21 128 -5z"/>
<path d="M4880 10335 l0 -285 200 0 200 0 0 55 0 55 -135 0 -135 0 0 65 0 65
115 0 115 0 0 50 0 49 -112 3 -113 3 0 55 0 55 133 3 132 3 0 54 0 55 -200 0
-200 0 0 -285z"/>
<path d="M5360 10335 l0 -285 70 0 70 0 0 90 0 90 43 0 43 0 53 -90 53 -90 75
0 c41 0 72 3 70 8 -2 4 -30 51 -61 105 l-58 98 26 20 c96 76 84 243 -22 310
-46 29 -47 29 -204 29 l-158 0 0 -285z m267 169 c27 -8 57 -67 47 -97 -14 -47
-33 -57 -106 -57 l-68 0 0 80 0 80 53 0 c28 0 62 -3 74 -6z"/>
<path d="M5910 10336 l0 -286 65 0 65 0 0 90 0 90 45 0 44 0 53 -90 52 -90 73
0 c40 0 73 3 73 6 0 3 -25 47 -55 99 -30 51 -55 98 -55 103 0 6 9 17 20 25 34
24 60 86 60 145 0 65 -27 121 -77 159 -36 28 -38 28 -200 31 l-163 3 0 -285z
m287 148 c21 -21 25 -32 20 -66 -7 -54 -28 -67 -109 -68 l-68 0 0 80 0 80 65
0 c57 0 69 -3 92 -26z"/>
<path d="M7070 10336 l0 -286 65 0 65 0 0 90 0 90 44 0 44 0 53 -90 53 -90 73
0 c40 0 73 2 73 4 0 3 -25 47 -55 99 -30 51 -55 98 -55 104 0 5 12 20 26 34
82 75 70 225 -23 296 -36 28 -38 28 -200 31 l-163 3 0 -285z m270 161 c29 -15
45 -54 36 -90 -11 -46 -31 -57 -107 -57 l-69 0 0 80 0 80 58 0 c31 0 68 -6 82
-13z"/>
<path d="M4261 6288 c-41 -27 -79 -96 -87 -158 -18 -136 91 -245 195 -195 l36
17 -19 -20 c-10 -12 -37 -30 -60 -41 -36 -19 -38 -21 -15 -21 55 0 128 73 149
149 11 40 13 142 4 189 -3 17 -18 45 -33 63 -23 27 -35 33 -82 36 -45 4 -60 1
-88 -19z"/>
<path d="M5380 6193 c-74 -27 -120 -178 -91 -300 14 -59 59 -117 101 -131 38
-14 39 -2 1 20 -16 9 -34 26 -41 38 -11 21 -11 21 19 6 68 -36 153 -8 187 62
14 27 19 59 19 118 0 72 -3 85 -28 123 -38 58 -109 85 -167 64z"/>
<path d="M1740 5320 l0 -530 530 0 530 0 0 530 0 530 -530 0 -530 0 0 -530z"/>
<path d="M3317 5103 c45 -121 289 -601 300 -590 9 10 -170 383 -254 530 -43
75 -59 95 -46 60z"/>
<path d="M2925 4575 c169 -84 552 -241 562 -231 7 6 -302 148 -459 210 -211
83 -239 89 -103 21z"/>
<path d="M4425 4366 c-140 -38 -270 -96 -180 -80 118 21 344 102 285 102 -14
0 -61 -9 -105 -22z"/>
<path d="M3028 4161 c35 -16 228 -33 337 -29 l100 3 -95 13 c-124 17 -373 26
-342 13z"/>
<path d="M4185 3885 c56 -46 375 -200 375 -181 0 15 -283 164 -363 191 l-42
15 30 -25z"/>
<path d="M4106 3693 c85 -147 320 -480 331 -469 6 6 -47 95 -121 206 -59 89
-225 310 -233 310 -3 0 8 -21 23 -47z"/>
<path d="M3471 3673 c-57 -63 -196 -258 -207 -289 -8 -23 -6 -21 68 66 78 92
209 280 195 280 -3 0 -28 -26 -56 -57z"/>
<path d="M2570 3140 c-791 -5 -778 -5 458 -8 843 -1 1272 1 1272 8 0 10 -109
10 -1730 0z"/>
</g>
</svg>
